<svg version="1.2" xmlns="http://www.w3.org/2000/svg" viewBox="0 0 193 75" width="193" height="75">
	<title>msn-written-logo-svg</title>
	<style>
		.s0 { fill: #335da3 } 
		.s1 { fill: #329fdd } 
		.s2 { fill: #e0a45b } 
		.s3 { fill: #ce5a36 } 
		.s4 { fill: #43a756 } 
		.s5 { fill: #8bbe5b } 
		.s6 { fill: #f2ca3c } 
	</style>
	<g id="Layer">
		<path id="Layer" fill-rule="evenodd" class="s0" d="m140.5 35q2.8 2.8 3 7l-0.4 4.8-4.1 24.8h-14.4l4.1-25.4c-0.1-2.1-1.2-3.2-3.4-3.2-3-0.1-4.8 2-5.6 6.1l-3.8 22.5h-14.1l6.4-38h13.4l-1.1 5.7c1.1-1.8 2.3-3.2 3.8-4.3 2.3-1.8 5.2-2.7 8.7-2.7 3.1 0 5.7 0.9 7.5 2.7z"/>
		<path id="Layer" fill-rule="evenodd" class="s1" d="m138.8 13.3c7.2 1.9 13.5 5.7 19.1 10.8l0.4 2.4c-3.2 0.9-5.5 2.6-6.7 5.2-1.2 2.6-1.5 5.5-0.7 9.1-7.2-5.5-12.7-12.9-16.8-21.9-1.1-2.6-1.4-4.6-0.3-5.2 1.7-0.9 3.5-0.9 5-0.4z"/>
		<path id="Layer" fill-rule="evenodd" class="s2" d="m175.1 23.8c5.5 1 9.5 3.7 11.8 8l-1.8 4.3c-1.6 2.6-4.2 4.1-7.8 4.6-3.4 0.4-6.7-0.3-9.9-1.6l-0.3-0.8-0.1-0.7c-1-3.9-2.7-8-5.3-12.3 4.3-1.7 8.7-2.2 13.4-1.5z"/>
		<path id="Layer" fill-rule="evenodd" class="s0" d="m167.1 38.3l0.3 1.2 0.6 6.8c-1.6-1.4-3.2-3.4-4.7-5.7l-0.5-1-4.4-12.2-0.1-0.9-0.4-2.4v-0.4c-0.3-1 0-1.4 0.6-1.7 0.6-0.2 1 0 1.6 0.8l1.3 2.1 0.3 0.4c2.6 4.3 4.3 8.4 5.3 12.3z"/>
		<path id="Layer" fill-rule="evenodd" class="s3" d="m161.5 24.9l-0.9-1.6c2.1-7.2 8.1-13.2 18-18.1 2.4-1.2 4.8-1.4 6.7 0 1 0.8 1.9 1.8 2.5 2.9 3.2 6.2 2.7 14.2-0.9 23.7-2.3-4.3-6.3-7-11.8-8-4.7-0.7-9.1-0.2-13.4 1.5z"/>
		<path id="Layer" fill-rule="evenodd" class="s4" d="m162.8 39.6l0.5 1-2.2 2.3c-2.5 0.9-5.1 0.4-7.7-0.4l-2.5-1.7c-0.8-3.6-0.5-6.5 0.7-9.1 1.2-2.6 3.5-4.3 6.7-5.2l0.1 0.9z"/>
		<path id="Layer" fill-rule="evenodd" class="s5" d="m161.1 42.9l2.2-2.3c1.5 2.3 3.1 4.3 4.7 5.7-0.3 3.4-0.6 5.9-1.5 7.7-0.2 0.5-0.6 1.2-1.1 1.3-0.9 0.3-1.9 0.3-2.7-0.1-5.5-2.6-9.3-7.7-11.8-14.4l2.5 1.7c2.7 0.8 5.4 1.3 7.7 0.4z"/>
		<path id="Layer" fill-rule="evenodd" class="s6" d="m176 52.1c-3.1-1.4-5.8-3.4-8-5.8l-0.6-6.8v-0.4c3.2 1.3 6.5 2 9.9 1.6 3.6-0.5 6.2-2 7.8-4.6l1.8-4.3c0.9 3.9 0.7 7.5-0.7 11.3-1.3 3.5-3.4 6.3-6.2 8.5-0.6 0.6-1.4 1.1-2.4 1-0.6 0-1.1-0.2-1.6-0.5z"/>
		<path id="Layer" fill-rule="evenodd" class="s0" d="m95.8 70.1c-3.6 2.1-7.8 3.1-12.9 3.1-10 0-16.4-3.8-19.2-11.3l11.6-2.6c1.4 3.2 4 4.8 7.8 4.8 3.5 0.1 5.4-0.7 5.4-2.5 0-1.3-2.4-2.6-7-3.8-9.8-2.3-14.4-6.4-14.3-12.2 0.1-5 2.2-8.6 6.5-10.9 3.5-2.1 7.9-3 13.4-2.9 8.5 0.4 13.9 3.9 16.4 10.3l-11.2 2.6q-1.9-4-6.3-4.1c-3.4-0.3-5.1 0.6-5.1 2.4q0 2.1 6.6 3.3c4.2 0.9 7.4 2 9.6 3.4 3.7 2.3 5.4 5.6 5.1 10.1-0.2 4.5-2.4 8-6.4 10.3zm86.3-15l-0.7 3.9h-1l0.6-3.9h-1.2l0.1-0.9h3.6l-0.1 0.9zm1.8-0.9h1.5l0.6 3 1.5-3h1.6l-0.9 4.8h-1l0.7-3.9-2 3.9h-0.6l-0.7-3.9-0.7 3.9h-0.9zm-167.1 17.4h-14l6.5-38.1h12.8l-0.8 5.8 3.4-4c2.6-2 5.4-3 8.6-3 4.7 0 7.8 2.4 9.2 7 2.9-4.6 6.8-7 12-7 6.7 0 10.3 3.6 10.5 10.6l-0.2 3.8-4.2 24.9h-14.4l3.7-22.7 0.3-2.7c-0.1-2.1-1.1-3.2-3.1-3.2-1.6 0-2.7 0.7-3.6 2.1l-1.3 4.7-3.7 21.8h-14.1l4-22.7 0.1-2.7c-0.1-2.1-1.1-3.2-3.1-3.2-1.5 0-2.8 0.7-3.6 2.1l-1.4 4.7zm129.7-7.4q0.9 0 1.8 0.5 0.2 0.1 0.4 0.2 0.2 0.2 0.4 0.3 0.2 0.2 0.3 0.4 0.2 0.2 0.3 0.4 0.1 0.3 0.2 0.5 0.1 0.2 0.2 0.4 0 0.3 0.1 0.5 0 0.3 0 0.5 0 1-0.5 1.9-0.5 0.9-1.4 1.3-0.9 0.5-1.8 0.5-1 0-1.9-0.5-0.2-0.1-0.4-0.2-0.2-0.2-0.4-0.3-0.2-0.2-0.3-0.4-0.1-0.2-0.3-0.4-0.1-0.2-0.2-0.5-0.1-0.2-0.1-0.4-0.1-0.3-0.1-0.5-0.1-0.2-0.1-0.5 0-1 0.5-1.9 0.5-0.9 1.4-1.3 0.2-0.2 0.5-0.2 0.2-0.1 0.4-0.2 0.3-0.1 0.5-0.1 0.2 0 0.5 0zm0 0.6q-0.8 0-1.6 0.4-0.7 0.4-1.1 1.1-0.4 0.8-0.4 1.6 0 0.8 0.4 1.6 0.4 0.7 1.1 1.1 0.8 0.4 1.6 0.4 0.8 0 1.5-0.4 0.8-0.4 1.2-1.1 0.1-0.2 0.1-0.4 0.1-0.2 0.2-0.4 0-0.2 0.1-0.4 0-0.2 0-0.4 0-0.8-0.4-1.6-0.1-0.1-0.3-0.3-0.1-0.2-0.2-0.3-0.2-0.2-0.4-0.3-0.1-0.1-0.3-0.2-0.2-0.1-0.4-0.2-0.1-0.1-0.3-0.1-0.2-0.1-0.4-0.1-0.2 0-0.4 0zm-1.7 1.2h1.4q0.7 0 1 0.1 0.4 0.1 0.5 0.4 0.1 0.1 0.2 0.3 0 0.2 0 0.4 0 0.1-0.1 0.3-0.1 0.2-0.2 0.3-0.3 0.3-0.8 0.4 0.2 0.1 0.3 0.2 0.3 0.2 0.6 0.8l0.5 0.8h-0.8l-0.3-0.7q-0.5-0.7-0.7-0.9-0.2-0.1-0.5-0.1h-0.4v1.7h-0.7zm1.5 1.7q0.5 0 0.7-0.1 0.2-0.2 0.2-0.5 0 0 0-0.1 0 0 0-0.1 0 0 0 0 0-0.1-0.1-0.1 0 0 0-0.1 0 0-0.1 0 0-0.1-0.1-0.1 0 0 0 0-0.2-0.1-0.7-0.1h-0.7v1.2z"/>
	</g>
</svg>