<svg version="1.2" xmlns="http://www.w3.org/2000/svg" viewBox="0 0 533 402" width="533" height="402">
	<title>noun-arrow-1920819-svg</title>
	<style>
		.s0 { fill: #5e75ab } 
	</style>
	<g id="Layer">
		<path id="Layer" class="s0" d="m-0.1 201.6c0-7.9 3.3-15.7 8.9-21.3l171.4-171.4c6.2-6.1 13.4-8.9 21.3-8.9 7.8 0 15.7 3.3 21.3 8.9 11.7 11.2 11.7 30.3 0 42l-119.9 120.4h400.4c16.3 0 29.7 13.5 29.7 29.7 0 16.2-13.4 29.7-29.7 29.7h-400.9l120.4 120.4c11.7 11.2 11.7 30.2 0 42-11.2 11.7-30.3 11.7-42 0l-170.8-170.8c-5.6-5.6-9-13.5-10.1-20.7z"/>
	</g>
</svg>