<svg version="1.2" xmlns="http://www.w3.org/2000/svg" viewBox="0 0 308 296" width="308" height="296">
	<title>noun-camera-5015563-svg</title>
	<style>
		.s0 { fill: #5e75ab } 
	</style>
	<g id="Layer">
		<path id="Layer" fill-rule="evenodd" class="s0" d="m92.1 177.3c0-34.2 27.7-62 61.9-62 34.2 0 61.9 27.8 61.9 62 0 34.1-27.7 61.9-61.9 61.9-34.2 0-61.9-27.8-61.9-61.9zm25.6 0c0 20 16.3 36.3 36.3 36.3 20 0 36.3-16.3 36.3-36.3 0-20-16.3-36.3-36.3-36.3-20 0-36.3 16.3-36.3 36.3z"/>
		<path id="Layer" fill-rule="evenodd" class="s0" d="m-0.1 256.9v-159.1c0-21.3 17.4-38.6 38.6-38.6h33.4l17-37.1c6.3-13.1 19.6-21.4 33.9-21.4h62.5c14.3 0 27.6 8.3 33.7 21.2l17.1 37.3h33.4c21.3 0 38.6 17.4 38.6 38.6v159c0 21.3-17.3 38.5-38.6 38.5h-231c-21.3 0-38.5-17.2-38.6-38.4zm100.3-197.7h107.6l-12.1-26.4c-1.8-3.9-6-6.5-10.4-6.5h-62.5c-4.5 0-8.7 2.6-10.6 6.7zm-74.5 38.5v159.1c0 7.1 5.8 12.8 12.8 12.8h231c7 0 12.8-5.7 12.8-12.8v-159.1c0-7-5.8-12.8-12.8-12.8h-231c-7.1 0-12.9 5.8-12.9 12.8z"/>
	</g>
</svg>