<svg version="1.2" xmlns="http://www.w3.org/2000/svg" viewBox="0 0 490 350" width="490" height="350">
	<title>noun-mail-4981889-svg</title>
	<style>
		.s0 { fill: #8695b4 } 
	</style>
	<path id="Layer" fill-rule="evenodd" class="s0" d="m490 297.5c0 13.9-5.5 27.3-15.4 37.1-9.8 9.9-23.2 15.4-37.1 15.4h-385c-13.9 0-27.3-5.5-37.1-15.4-9.9-9.8-15.4-23.2-15.4-37.1v-245c0-13.9 5.5-27.3 15.4-37.1 9.8-9.9 23.2-15.4 37.1-15.4h385c13.9 0 27.3 5.5 37.1 15.4 9.9 9.8 15.4 23.2 15.4 37.1zm-35-241.5l-200.3 133.6c-5.9 3.9-13.5 3.9-19.4 0l-200.3-133.6v241.5c0 4.6 1.8 9.1 5.1 12.4 3.3 3.3 7.8 5.1 12.4 5.1h385c4.6 0 9.1-1.8 12.4-5.1 3.3-3.3 5.1-7.8 5.1-12.4zm-31.6-21h-356.9l178.5 118.9z"/>
</svg>