<svg version="1.2" xmlns="http://www.w3.org/2000/svg" viewBox="0 0 391 529" width="391" height="529">
	<title>noun-microphone-5006529-svg</title>
	<style>
		.s0 { fill: #5e75ab } 
	</style>
	<g id="Layer">
		<path id="Layer" class="s0" d="m383.4 217.6c3.3 3.3 5.1 7.8 5.1 12.4 0 51.1-20.3 100-56.4 136.1-36.1 36.1-85 56.4-136.1 56.4-51.1 0-100-20.3-136.1-56.4-36.1-36.1-56.4-85-56.4-136.1 0-6.3 3.3-12 8.8-15.2 5.4-3.1 12-3.1 17.5 0 5.4 3.2 8.7 8.9 8.7 15.2 0 56.3 30 108.3 78.8 136.4 48.7 28.1 108.7 28.1 157.5 0 48.7-28.1 78.7-80.1 78.7-136.4 0-4.6 1.8-9.1 5.1-12.4 3.3-3.3 7.8-5.1 12.4-5.1 4.6 0 9.1 1.8 12.4 5.1z"/>
		<path id="Layer" fill-rule="evenodd" class="s0" d="m109.4 316.6c-23-23-35.9-54.1-35.9-86.6v-105c0-43.8 23.3-84.2 61.2-106.1 38-21.9 84.6-21.9 122.5 0 38 21.9 61.3 62.3 61.3 106.1v105c0 32.5-12.9 63.6-35.9 86.6-23 23-54.1 35.9-86.6 35.9-32.5 0-63.6-12.9-86.6-35.9zm-0.9-86.6c0 31.3 16.7 60.1 43.7 75.8 27.1 15.6 60.5 15.6 87.5 0 27.1-15.7 43.8-44.5 43.8-75.8v-105c0-31.3-16.7-60.1-43.8-75.8-27-15.6-60.4-15.6-87.5 0-27 15.7-43.7 44.5-43.7 75.8z"/>
		<path id="Layer" class="s0" d="m263.7 501.3c3.1 5.4 3.1 12 0 17.4-3.2 5.5-8.9 8.8-15.2 8.8h-105c-6.3 0-12-3.3-15.2-8.8-3.1-5.4-3.1-12 0-17.5 3.2-5.4 8.9-8.7 15.2-8.7h35v-17.5c0-6.3 3.3-12 8.8-15.2 5.4-3.1 12-3.1 17.5 0 5.4 3.2 8.7 8.9 8.7 15.2v17.5h35c6.3 0 12 3.3 15.2 8.7z"/>
	</g>
</svg>