<svg version="1.2" xmlns="http://www.w3.org/2000/svg" viewBox="0 0 126 560" width="126" height="560">
	<title>noun-more-4213630-svg</title>
	<style>
		.s0 { fill: #5e75ab } 
	</style>
	<path id="Layer" fill-rule="evenodd" class="s0" d="m63 435.6c34.4-0.1 62.2 27.8 62.2 62.2 0 34.3-27.8 62.2-62.2 62.2-34.4 0-62.2-27.9-62.2-62.2 0-34.4 27.8-62.3 62.2-62.3zm0-217.7c34.4 0 62.2 27.8 62.2 62.2 0 34.4-27.8 62.2-62.2 62.2-34.4 0-62.2-27.8-62.2-62.2 0-34.4 27.8-62.2 62.2-62.2zm0-217.8c34.4 0 62.2 27.8 62.2 62.2 0 34.4-27.8 62.2-62.2 62.2-34.4 0-62.2-27.8-62.2-62.2 0-34.4 27.8-62.2 62.2-62.2z"/>
</svg>