<svg version="1.2" xmlns="http://www.w3.org/2000/svg" viewBox="0 0 549 369" width="549" height="369">
	<title>noun-name-1946973-svg</title>
	<style>
		.s0 { fill: #8695b4 } 
	</style>
	<g id="Layer">
		<path id="Layer" fill-rule="evenodd" class="s0" d="m541.6 74.7v221.2c0 36.4-29.7 65.5-65.6 65.5h-401.5c-36.4 0-65.5-29.7-65.5-65.5v-220.7c0-36.4 29.7-65.5 65.5-65.5h401c36.4 0 65.5 29.1 66.1 65zm-21.3 0c0-24.1-19.6-44.3-44.3-44.3h-401.5c-24.1 0-44.2 19.6-44.2 44.3v220.6c0 24.1 19.6 44.3 44.2 44.3h401.5c24.1 0 44.3-19.6 44.3-44.3z"/>
		<path id="Layer" class="s0" d="m464.3 102.7c0 6.1-5.1 10.6-10.7 10.6h-147.8c-6.2 0-10.6-4.5-10.6-10.6 0-6.2 5-10.7 10.6-10.7h147.8c6.2 0 10.7 4.5 10.7 10.7z"/>
		<path id="Layer" class="s0" d="m464.3 185c0 6.2-5.1 10.6-10.7 10.6h-147.8c-6.2 0-10.6-4.4-10.6-10.6 0-6.2 5-10.6 10.6-10.6h147.8c6.2 0 10.7 4.4 10.7 10.6z"/>
		<path id="Layer" class="s0" d="m464.3 267.9c0 6.1-5.1 10.6-10.7 10.6h-147.8c-6.2 0-10.6-5-10.6-10.6 0-6.2 5-10.7 10.6-10.7h147.8c6.2 0 10.7 4.5 10.7 10.7z"/>
		<path id="Layer" fill-rule="evenodd" class="s0" d="m241.4 253.8c0 29.1-39.8 42-79.5 42-19.6 0-37.5-3.4-51.5-9-24.1-10.1-28-25.2-28-33.6 0-34.7 18.4-64.4 45.3-78.4-11.2-9.5-18.5-23.5-18.5-39.8 0-29.1 23.6-52.6 52.7-52.6 29.1 0 52.6 23.5 52.6 52.6 0 15.7-7.3 30.3-18.5 39.8 26.9 14 45.4 44.2 45.4 79zm-79.5-87.4c17.3 0 31.3-14 31.3-31.4 0-17.3-14-31.3-31.3-31.3-17.4 0-31.4 14-31.4 31.3 0 17.4 14 31.4 31.4 31.4zm58.2 86.8c0-36.4-26.3-66.1-58.2-66.1-31.9 0-58.3 29.7-58.3 66.1 0 11.8 26.4 21.3 58.3 21.3 31.9 0 58.8-9.5 58.2-21.3z"/>
	</g>
</svg>