<svg version="1.2" xmlns="http://www.w3.org/2000/svg" viewBox="0 0 538 652" width="538" height="652">
	<title>password-home-icon-svg</title>
	<style>
		.s0 { fill: #8695b4 } 
	</style>
	<g id="Layer">
		<path id="Layer" fill-rule="evenodd" class="s0" d="m529.4 326.9v267.5c0 28.3-23.1 51.4-51.5 51.4h-411.5c-28.3 0-51.4-23.1-51.4-51.4v-267.5c0-28.4 23.1-51.4 51.4-51.4h10.3v-77.2c0-104.9 85.4-190.3 190.3-190.3 105 0 190.4 85.4 190.4 190.3v77.2h20.5c28.4 0 51.5 23 51.5 51.4zm-432.1-51.4h41.1v-77.2c0-70.9 57.7-128.6 128.6-128.6 70.9 0 128.6 57.7 128.6 128.6v77.2h41.2v-77.2c0-93.6-76.2-169.7-169.8-169.7-93.6 0-169.7 76.1-169.7 169.7zm277.8-77.1c0-59.6-48.5-108.1-108.1-108.1-59.5 0-108 48.5-108 108.1v77.1h216.1zm-339.5 410.1c0 9.3 7.5 16.8 16.8 16.8h439.6c9.3 0 16.8-7.5 16.8-16.8v-295.6c0-9.2-7.5-16.8-16.8-16.8h-439.6c-9.3 0-16.8 7.6-16.8 16.8zm277.7-188.9v82.3c0 22.7-18.4 41.1-41.1 41.1-22.7 0-41.2-18.4-41.2-41.1v-82.3c0-22.7 18.5-41.2 41.2-41.2 22.7 0 41.1 18.5 41.1 41.2zm-20.5 0c0-11.4-9.3-20.6-20.6-20.6-11.4 0-20.6 9.2-20.6 20.6v82.3c0 11.3 9.2 20.6 20.6 20.6 11.3 0 20.6-9.3 20.6-20.6z"/>
	</g>
</svg>