<svg version="1.2" xmlns="http://www.w3.org/2000/svg" viewBox="0 0 541 352" width="541" height="352">
	<title>send-message--icon-svg</title>
	<style>
		.s0 { fill: #5e75ab;stroke: #5e75ab;paint-order:stroke fill markers;stroke-linejoin: round;stroke-width: 10 } 
	</style>
	<g id="Layer">
		<path id="Layer" fill-rule="evenodd" class="s0" d="m511.1 28.1q0.1 1.2-0.2 2.2c0 0.1 0 0.2-0.1 0.3q0 0.1 0 0.1-0.2 0.7-0.6 1.4-0.2 0.5-0.5 0.9l-194.4 267.6c-2.3 3.2-6.7 4-10 1.9l-54.7-36.1-67.2 60.5c-0.2 0.2-0.4 0.2-0.6 0.4q-0.5 0.4-1.2 0.7-0.6 0.3-1.2 0.5c-0.2 0-0.4 0.2-0.6 0.2q-0.7 0.1-1.3 0.1c-1 0-1.8-0.2-2.7-0.5-0.2-0.1-0.4-0.2-0.7-0.4q-0.9-0.5-1.7-1.2c-0.1-0.1-0.3-0.2-0.4-0.3-0.1-0.1-0.1-0.1-0.1-0.2-0.6-0.6-1.1-1.4-1.4-2.2v-0.1l-52.5-144.2-91-63.2c-2.4-1.7-3.6-4.8-3-7.7 0.7-2.9 3-5.1 6-5.7l471.4-81.8c0.1 0 0.2 0 0.4 0 0.3 0 0.6 0 1 0q0.8 0 1.6 0.1 0.5 0.2 1 0.3 0.7 0.3 1.4 0.8 0.4 0.3 0.8 0.6c0.5 0.4 0.8 0.9 1.2 1.4 0.1 0.2 0.3 0.3 0.4 0.5 0.1 0.1 0.1 0.2 0.1 0.2 0.1 0.1 0.1 0.2 0.2 0.3q0.2 0.4 0.4 0.9c0 0.3 0 0.6 0.1 0.9q0.1 0.4 0.1 0.8zm-384.9 138.6l305.5-118.2-380.5 66.1zm44.1 110.7l-1.3-68.8q0-1.1 0.3-2.1c0-0.1 0.1-0.2 0.1-0.4q0.3-1 1-1.9 0.2-0.3 0.4-0.5c0.6-0.7 1.2-1.3 2-1.7l230.7-126.8-268.9 104.1zm67.6-19.4l-53.9-35.7 1.5 82.9zm240.6-207.2l-287.9 158.2 116.9 77.3z"/>
	</g>
</svg>