<svg version="1.2" xmlns="http://www.w3.org/2000/svg" viewBox="0 0 613 662" width="613" height="662">
	<title>noun-user-4971536-svg</title>
	<style>
		.s0 { fill: #8695b4 } 
	</style>
	<path id="Layer" fill-rule="evenodd" class="s0" d="m600.3 599.4c2.2 13.6-1.6 27.4-10.4 37.9-8.7 10.3-21.6 16.2-35.1 16.2h-500c-13.4 0-26.1-6-34.8-16.2-8.8-10.5-12.6-24.4-10.3-37.9 8.1-55.4 30.7-107.7 65.4-151.6 34.7-43.9 80.4-77.9 132.4-98.6-45.5-28.4-76.4-75.2-84.5-128.3-8.1-53.1 7.3-107 42.3-147.7 35-40.8 86-64.2 139.7-64.2 53.6 0 104.6 23.4 139.6 64.2 35 40.7 50.4 94.6 42.3 147.7-8.1 53.1-39 99.9-84.5 128.3 52 20.7 97.7 54.7 132.4 98.6 34.7 43.9 57.3 96.2 65.4 151.6zm-392.9-308.5c25.9 25.9 60.9 40.5 97.5 40.5 36.7 0 71.8-14.6 97.7-40.4 25.9-25.9 40.4-61 40.4-97.7 0-36.6-14.5-71.7-40.4-97.6-25.9-25.9-61-40.4-97.7-40.4-36.6 0-71.7 14.5-97.6 40.4-25.9 25.9-40.4 61-40.4 97.6 0 36.6 14.6 71.7 40.5 97.6zm347.5 316.6c-22.2-133.5-127.3-230.1-250-230.1-122.6 0-227.8 96.6-250 229.6v0.5z"/>
</svg>